<mxfile host="app.diagrams.net" modified="2021-02-23T08:37:36.337Z" agent="5.0 (Macintosh; Intel Mac OS X 10_15_7) AppleWebKit/537.36 (KHTML, like Gecko) Chrome/88.0.4324.150 Safari/537.36" etag="w92U6q1wSz5X2SV564Ds" version="14.2.9" type="github">
  <diagram id="bZTbZ5O3OS-NT0CGZMS1" name="Page-1">
    <mxGraphModel dx="946" dy="614" grid="1" gridSize="10" guides="1" tooltips="1" connect="1" arrows="1" fold="1" page="1" pageScale="1" pageWidth="2336" pageHeight="1654" math="0" shadow="0">
      <root>
        <mxCell id="0" />
        <mxCell id="1" parent="0" />
        <mxCell id="xK0-ojXZeJw3lbWUg3sg-16" style="edgeStyle=orthogonalEdgeStyle;rounded=0;orthogonalLoop=1;jettySize=auto;html=1;entryX=0.5;entryY=0;entryDx=0;entryDy=0;entryPerimeter=0;" edge="1" parent="1" source="xK0-ojXZeJw3lbWUg3sg-1" target="xK0-ojXZeJw3lbWUg3sg-4">
          <mxGeometry relative="1" as="geometry" />
        </mxCell>
        <mxCell id="xK0-ojXZeJw3lbWUg3sg-1" value="Home" style="html=1;strokeColor=none;fillColor=#0079D6;labelPosition=center;verticalLabelPosition=middle;verticalAlign=top;align=center;fontSize=12;outlineConnect=0;spacingTop=-6;fontColor=#FFFFFF;shape=mxgraph.sitemap.home;" vertex="1" parent="1">
          <mxGeometry x="430" width="130" height="80" as="geometry" />
        </mxCell>
        <mxCell id="xK0-ojXZeJw3lbWUg3sg-19" style="edgeStyle=orthogonalEdgeStyle;rounded=0;orthogonalLoop=1;jettySize=auto;html=1;entryX=0.5;entryY=0;entryDx=0;entryDy=0;entryPerimeter=0;" edge="1" parent="1" source="xK0-ojXZeJw3lbWUg3sg-4" target="xK0-ojXZeJw3lbWUg3sg-13">
          <mxGeometry relative="1" as="geometry" />
        </mxCell>
        <mxCell id="xK0-ojXZeJw3lbWUg3sg-20" style="edgeStyle=orthogonalEdgeStyle;rounded=0;orthogonalLoop=1;jettySize=auto;html=1;entryX=0.5;entryY=0;entryDx=0;entryDy=0;entryPerimeter=0;" edge="1" parent="1" source="xK0-ojXZeJw3lbWUg3sg-4" target="xK0-ojXZeJw3lbWUg3sg-14">
          <mxGeometry relative="1" as="geometry" />
        </mxCell>
        <mxCell id="xK0-ojXZeJw3lbWUg3sg-4" value="Login" style="html=1;strokeColor=none;fillColor=#0079D6;labelPosition=center;verticalLabelPosition=middle;verticalAlign=top;align=center;fontSize=12;outlineConnect=0;spacingTop=-6;fontColor=#FFFFFF;shape=mxgraph.sitemap.login;" vertex="1" parent="1">
          <mxGeometry x="430" y="110" width="130" height="80" as="geometry" />
        </mxCell>
        <mxCell id="xK0-ojXZeJw3lbWUg3sg-5" value="Map" style="html=1;strokeColor=none;fillColor=#0079D6;labelPosition=center;verticalLabelPosition=middle;verticalAlign=top;align=center;fontSize=12;outlineConnect=0;spacingTop=-6;fontColor=#FFFFFF;shape=mxgraph.sitemap.map;" vertex="1" parent="1">
          <mxGeometry x="820" y="650" width="60" height="40" as="geometry" />
        </mxCell>
        <mxCell id="xK0-ojXZeJw3lbWUg3sg-6" value="Photo" style="html=1;strokeColor=none;fillColor=#0079D6;labelPosition=center;verticalLabelPosition=middle;verticalAlign=top;align=center;fontSize=12;outlineConnect=0;spacingTop=-6;fontColor=#FFFFFF;shape=mxgraph.sitemap.photo;" vertex="1" parent="1">
          <mxGeometry x="970" y="630" width="60" height="40" as="geometry" />
        </mxCell>
        <mxCell id="xK0-ojXZeJw3lbWUg3sg-25" style="edgeStyle=orthogonalEdgeStyle;rounded=0;orthogonalLoop=1;jettySize=auto;html=1;entryX=0.5;entryY=0;entryDx=0;entryDy=0;entryPerimeter=0;startArrow=none;startFill=0;endArrow=classic;endFill=1;" edge="1" parent="1" source="xK0-ojXZeJw3lbWUg3sg-7" target="xK0-ojXZeJw3lbWUg3sg-11">
          <mxGeometry relative="1" as="geometry" />
        </mxCell>
        <mxCell id="xK0-ojXZeJw3lbWUg3sg-27" style="edgeStyle=orthogonalEdgeStyle;rounded=0;orthogonalLoop=1;jettySize=auto;html=1;startArrow=none;startFill=0;endArrow=classic;endFill=1;" edge="1" parent="1" source="xK0-ojXZeJw3lbWUg3sg-7" target="xK0-ojXZeJw3lbWUg3sg-9">
          <mxGeometry relative="1" as="geometry" />
        </mxCell>
        <mxCell id="xK0-ojXZeJw3lbWUg3sg-7" value="Payment" style="html=1;strokeColor=none;fillColor=#0079D6;labelPosition=center;verticalLabelPosition=middle;verticalAlign=top;align=center;fontSize=12;outlineConnect=0;spacingTop=-6;fontColor=#FFFFFF;shape=mxgraph.sitemap.payment;" vertex="1" parent="1">
          <mxGeometry x="450" y="342.5" width="130" height="85" as="geometry" />
        </mxCell>
        <mxCell id="xK0-ojXZeJw3lbWUg3sg-29" style="edgeStyle=orthogonalEdgeStyle;rounded=0;orthogonalLoop=1;jettySize=auto;html=1;entryX=1;entryY=0.5;entryDx=0;entryDy=0;entryPerimeter=0;startArrow=none;startFill=0;endArrow=classic;endFill=1;" edge="1" parent="1" source="xK0-ojXZeJw3lbWUg3sg-8" target="xK0-ojXZeJw3lbWUg3sg-7">
          <mxGeometry relative="1" as="geometry" />
        </mxCell>
        <mxCell id="xK0-ojXZeJw3lbWUg3sg-32" style="edgeStyle=orthogonalEdgeStyle;rounded=0;orthogonalLoop=1;jettySize=auto;html=1;entryX=0.5;entryY=0;entryDx=0;entryDy=0;entryPerimeter=0;startArrow=none;startFill=0;endArrow=classic;endFill=1;" edge="1" parent="1" source="xK0-ojXZeJw3lbWUg3sg-8" target="xK0-ojXZeJw3lbWUg3sg-12">
          <mxGeometry relative="1" as="geometry" />
        </mxCell>
        <mxCell id="xK0-ojXZeJw3lbWUg3sg-8" value="Profile" style="html=1;strokeColor=none;fillColor=#0079D6;labelPosition=center;verticalLabelPosition=middle;verticalAlign=top;align=center;fontSize=12;outlineConnect=0;spacingTop=-6;fontColor=#FFFFFF;shape=mxgraph.sitemap.profile;" vertex="1" parent="1">
          <mxGeometry x="660" y="345" width="130" height="80" as="geometry" />
        </mxCell>
        <mxCell id="xK0-ojXZeJw3lbWUg3sg-31" style="edgeStyle=orthogonalEdgeStyle;rounded=0;orthogonalLoop=1;jettySize=auto;html=1;entryX=0.5;entryY=1;entryDx=0;entryDy=0;entryPerimeter=0;startArrow=none;startFill=0;endArrow=classic;endFill=1;" edge="1" parent="1" source="xK0-ojXZeJw3lbWUg3sg-9" target="xK0-ojXZeJw3lbWUg3sg-8">
          <mxGeometry relative="1" as="geometry" />
        </mxCell>
        <mxCell id="xK0-ojXZeJw3lbWUg3sg-9" value="Success" style="html=1;strokeColor=none;fillColor=#0079D6;labelPosition=center;verticalLabelPosition=middle;verticalAlign=top;align=center;fontSize=12;outlineConnect=0;spacingTop=-6;fontColor=#FFFFFF;shape=mxgraph.sitemap.success;" vertex="1" parent="1">
          <mxGeometry x="540" y="500" width="60" height="40" as="geometry" />
        </mxCell>
        <mxCell id="xK0-ojXZeJw3lbWUg3sg-10" value="Video" style="html=1;strokeColor=none;fillColor=#0079D6;labelPosition=center;verticalLabelPosition=middle;verticalAlign=top;align=center;fontSize=12;outlineConnect=0;spacingTop=-6;fontColor=#FFFFFF;shape=mxgraph.sitemap.video;" vertex="1" parent="1">
          <mxGeometry x="740" y="630" width="60" height="40" as="geometry" />
        </mxCell>
        <mxCell id="xK0-ojXZeJw3lbWUg3sg-30" style="edgeStyle=orthogonalEdgeStyle;rounded=0;orthogonalLoop=1;jettySize=auto;html=1;startArrow=none;startFill=0;endArrow=classic;endFill=1;entryX=0;entryY=0.5;entryDx=0;entryDy=0;entryPerimeter=0;" edge="1" parent="1" source="xK0-ojXZeJw3lbWUg3sg-11" target="xK0-ojXZeJw3lbWUg3sg-7">
          <mxGeometry relative="1" as="geometry">
            <mxPoint x="380" y="370" as="targetPoint" />
            <Array as="points">
              <mxPoint x="380" y="520" />
              <mxPoint x="380" y="385" />
            </Array>
          </mxGeometry>
        </mxCell>
        <mxCell id="xK0-ojXZeJw3lbWUg3sg-11" value="Warning" style="html=1;strokeColor=none;fillColor=#0079D6;labelPosition=center;verticalLabelPosition=middle;verticalAlign=top;align=center;fontSize=12;outlineConnect=0;spacingTop=-6;fontColor=#FFFFFF;shape=mxgraph.sitemap.warning;" vertex="1" parent="1">
          <mxGeometry x="430" y="500" width="60" height="40" as="geometry" />
        </mxCell>
        <mxCell id="xK0-ojXZeJw3lbWUg3sg-34" style="edgeStyle=orthogonalEdgeStyle;rounded=0;orthogonalLoop=1;jettySize=auto;html=1;entryX=0.25;entryY=0;entryDx=0;entryDy=0;entryPerimeter=0;startArrow=none;startFill=0;endArrow=classic;endFill=1;" edge="1" parent="1" source="xK0-ojXZeJw3lbWUg3sg-12" target="xK0-ojXZeJw3lbWUg3sg-10">
          <mxGeometry relative="1" as="geometry" />
        </mxCell>
        <mxCell id="xK0-ojXZeJw3lbWUg3sg-36" style="edgeStyle=orthogonalEdgeStyle;rounded=0;orthogonalLoop=1;jettySize=auto;html=1;startArrow=none;startFill=0;endArrow=classic;endFill=1;" edge="1" parent="1" source="xK0-ojXZeJw3lbWUg3sg-12" target="xK0-ojXZeJw3lbWUg3sg-6">
          <mxGeometry relative="1" as="geometry" />
        </mxCell>
        <mxCell id="xK0-ojXZeJw3lbWUg3sg-37" style="edgeStyle=orthogonalEdgeStyle;rounded=0;orthogonalLoop=1;jettySize=auto;html=1;startArrow=none;startFill=0;endArrow=classic;endFill=1;exitX=0.25;exitY=1;exitDx=0;exitDy=0;exitPerimeter=0;" edge="1" parent="1" source="xK0-ojXZeJw3lbWUg3sg-12" target="xK0-ojXZeJw3lbWUg3sg-5">
          <mxGeometry relative="1" as="geometry" />
        </mxCell>
        <mxCell id="xK0-ojXZeJw3lbWUg3sg-12" value="Script" style="html=1;strokeColor=none;fillColor=#0079D6;labelPosition=center;verticalLabelPosition=middle;verticalAlign=top;align=center;fontSize=12;outlineConnect=0;spacingTop=-6;fontColor=#FFFFFF;shape=mxgraph.sitemap.script;" vertex="1" parent="1">
          <mxGeometry x="815" y="520" width="130" height="80" as="geometry" />
        </mxCell>
        <mxCell id="xK0-ojXZeJw3lbWUg3sg-28" style="edgeStyle=orthogonalEdgeStyle;rounded=0;orthogonalLoop=1;jettySize=auto;html=1;entryX=0.5;entryY=0;entryDx=0;entryDy=0;entryPerimeter=0;startArrow=none;startFill=0;endArrow=classic;endFill=1;" edge="1" parent="1" source="xK0-ojXZeJw3lbWUg3sg-13" target="xK0-ojXZeJw3lbWUg3sg-8">
          <mxGeometry relative="1" as="geometry" />
        </mxCell>
        <mxCell id="xK0-ojXZeJw3lbWUg3sg-13" value="Success" style="html=1;strokeColor=none;fillColor=#0079D6;labelPosition=center;verticalLabelPosition=middle;verticalAlign=top;align=center;fontSize=12;outlineConnect=0;spacingTop=-6;fontColor=#FFFFFF;shape=mxgraph.sitemap.success;" vertex="1" parent="1">
          <mxGeometry x="540" y="240" width="60" height="40" as="geometry" />
        </mxCell>
        <mxCell id="xK0-ojXZeJw3lbWUg3sg-14" value="Warning" style="html=1;strokeColor=none;fillColor=#0079D6;labelPosition=center;verticalLabelPosition=middle;verticalAlign=top;align=center;fontSize=12;outlineConnect=0;spacingTop=-6;fontColor=#FFFFFF;shape=mxgraph.sitemap.warning;" vertex="1" parent="1">
          <mxGeometry x="390" y="240" width="60" height="40" as="geometry" />
        </mxCell>
        <mxCell id="xK0-ojXZeJw3lbWUg3sg-22" value="" style="endArrow=none;html=1;entryX=0;entryY=0.5;entryDx=0;entryDy=0;entryPerimeter=0;exitX=0;exitY=0.5;exitDx=0;exitDy=0;exitPerimeter=0;endFill=0;startArrow=classic;startFill=1;" edge="1" parent="1" source="xK0-ojXZeJw3lbWUg3sg-4" target="xK0-ojXZeJw3lbWUg3sg-14">
          <mxGeometry width="50" height="50" relative="1" as="geometry">
            <mxPoint x="320" y="40" as="sourcePoint" />
            <mxPoint x="370" y="260" as="targetPoint" />
            <Array as="points">
              <mxPoint x="320" y="150" />
              <mxPoint x="320" y="260" />
            </Array>
          </mxGeometry>
        </mxCell>
        <mxCell id="xK0-ojXZeJw3lbWUg3sg-33" value="Info" style="html=1;strokeColor=none;fillColor=#0079D6;labelPosition=center;verticalLabelPosition=middle;verticalAlign=top;align=center;fontSize=12;outlineConnect=0;spacingTop=-6;fontColor=#FFFFFF;shape=mxgraph.sitemap.info;" vertex="1" parent="1">
          <mxGeometry x="880" y="650" width="65" height="40" as="geometry" />
        </mxCell>
        <mxCell id="xK0-ojXZeJw3lbWUg3sg-39" value="" style="endArrow=classic;html=1;exitX=0.75;exitY=1;exitDx=0;exitDy=0;exitPerimeter=0;endFill=1;" edge="1" parent="1" source="xK0-ojXZeJw3lbWUg3sg-12" target="xK0-ojXZeJw3lbWUg3sg-33">
          <mxGeometry width="50" height="50" relative="1" as="geometry">
            <mxPoint x="640" y="580" as="sourcePoint" />
            <mxPoint x="690" y="530" as="targetPoint" />
          </mxGeometry>
        </mxCell>
      </root>
    </mxGraphModel>
  </diagram>
</mxfile>
